<svg width="33" height="30" viewBox="0 0 33 30" fill="none" xmlns="http://www.w3.org/2000/svg">
<g clip-path="url(#clip0_1_2439)">
<path d="M7.7954 28.3384C9.66162 26.6037 9.75579 23.698 8.00575 21.8482C6.25571 19.9984 3.32415 19.905 1.45794 21.6397C-0.408277 23.3743 -0.502453 26.2801 1.24759 28.1299C2.99763 29.9797 5.92919 30.073 7.7954 28.3384Z" fill="#875BF8"/>
<path d="M18.9011 0.418701H10.6523C10.3676 0.418701 10.1769 0.711368 10.2918 0.971867L22.8621 29.464C22.8936 29.5354 22.9643 29.5815 23.0424 29.5815H32.3925C32.6772 29.5815 32.868 29.2889 32.7531 29.0284L20.6301 1.5414C20.3296 0.858618 19.65 0.418701 18.9011 0.418701Z" fill="#875BF8"/>
</g>
<defs>
<clipPath id="clip0_1_2439">
<rect width="33" height="29.1628" fill="white" transform="translate(0 0.418701)"/>
</clipPath>
</defs>
</svg>
