<?xml version="1.0" encoding="utf-8"?>
<!-- Generator: Adobe Illustrator 27.8.0, SVG Export Plug-In . SVG Version: 6.00 Build 0)  -->
<svg version="1.1" id="Layer_1" xmlns="http://www.w3.org/2000/svg" xmlns:xlink="http://www.w3.org/1999/xlink" x="0px" y="0px"
	 viewBox="0 0 137 54" style="enable-background:new 0 0 137 54;" xml:space="preserve">
<style type="text/css">
	.st0{fill:#875BF8;}
	.st1{fill:#FFFFFF;}
</style>
<path class="st0" d="M19.8,39.9c1.9-1.7,2-4.6,0.2-6.5c-1.8-1.8-4.7-1.9-6.5-0.2c-1.9,1.7-2,4.6-0.2,6.5
	C15,41.6,17.9,41.7,19.8,39.9z"/>
<path class="st0" d="M30.9,12h-8.2c-0.3,0-0.5,0.3-0.4,0.6L34.9,41c0,0.1,0.1,0.1,0.2,0.1h9.4c0.3,0,0.5-0.3,0.4-0.6L32.6,13.1
	C32.3,12.4,31.6,12,30.9,12z"/>
<path class="st1" d="M66.4,20.6h4.5v18.6h-4.5l-0.2-2.3c-0.5,0.8-1.2,1.5-2,2c-0.8,0.5-1.8,0.8-2.9,0.8c-1.4,0-2.7-0.3-3.9-0.8
	c-1.2-0.5-2.3-1.2-3.2-2.2c-0.9-0.9-1.6-2-2.1-3.2c-0.5-1.2-0.8-2.5-0.8-3.9c0-1.3,0.2-2.6,0.7-3.7c0.5-1.2,1.2-2.2,2.1-3.1
	c0.9-0.9,1.9-1.6,3-2.1c1.2-0.5,2.4-0.7,3.7-0.7c1.2,0,2.3,0.3,3.3,0.8c1,0.5,1.8,1.2,2.5,2.1L66.4,20.6z M61.1,35.3
	c1,0,1.8-0.2,2.6-0.7c0.7-0.5,1.3-1.1,1.7-1.9c0.4-0.8,0.6-1.7,0.6-2.7c0-1-0.2-1.9-0.6-2.7c-0.4-0.8-1-1.5-1.8-2
	c-0.7-0.5-1.6-0.7-2.5-0.7c-1,0-1.8,0.2-2.6,0.7c-0.8,0.5-1.4,1.1-1.9,1.9c-0.5,0.8-0.7,1.7-0.7,2.7c0,1,0.2,1.9,0.7,2.7
	s1.1,1.5,1.9,1.9C59.3,35,60.2,35.3,61.1,35.3z"/>
<path class="st1" d="M74.6,20.6h4.5v18.6h-4.5V20.6z M76.9,18.2c-0.7,0-1.2-0.2-1.7-0.6c-0.5-0.4-0.7-1-0.7-1.7
	c0-0.7,0.2-1.2,0.7-1.7c0.5-0.4,1-0.7,1.7-0.7c0.7,0,1.2,0.2,1.7,0.7c0.5,0.4,0.7,1,0.7,1.7c0,0.7-0.2,1.2-0.7,1.7
	C78.1,18,77.6,18.2,76.9,18.2z"/>
<path class="st1" d="M83.5,39.1l0-18.6H88l0,1.7c0.6-0.7,1.4-1.2,2.3-1.6c0.9-0.4,1.8-0.6,2.8-0.6c0.7,0,1.4,0.1,2,0.3l-1.8,4.6
	c-0.5-0.2-0.9-0.3-1.4-0.3c-0.7,0-1.4,0.2-2,0.5c-0.6,0.3-1.1,0.8-1.4,1.4c-0.3,0.6-0.5,1.3-0.5,2v10.5H83.5z"/>
<path class="st1" d="M97.2,20.6h4.5v18.6h-4.5V20.6z M99.5,18.2c-0.7,0-1.2-0.2-1.7-0.6c-0.5-0.4-0.7-1-0.7-1.7
	c0-0.7,0.2-1.2,0.7-1.7c0.5-0.4,1-0.7,1.7-0.7c0.7,0,1.2,0.2,1.7,0.7c0.5,0.4,0.7,1,0.7,1.7c0,0.7-0.2,1.2-0.7,1.7
	C100.7,18,100.1,18.2,99.5,18.2z"/>
<path class="st1" d="M119.7,20.6h4.5v18.6h-4.5l-0.2-2.3c-0.5,0.8-1.2,1.5-2,2c-0.8,0.5-1.8,0.8-3,0.8c-1.4,0-2.7-0.3-3.9-0.8
	c-1.2-0.5-2.3-1.2-3.2-2.2c-0.9-0.9-1.6-2-2.1-3.2c-0.5-1.2-0.8-2.5-0.8-3.9c0-1.3,0.2-2.6,0.7-3.7c0.5-1.2,1.2-2.2,2.1-3.1
	c0.9-0.9,1.9-1.6,3-2.1c1.2-0.5,2.4-0.7,3.7-0.7c1.2,0,2.3,0.3,3.3,0.8c1,0.5,1.8,1.2,2.5,2.1L119.7,20.6z M114.4,35.3
	c1,0,1.8-0.2,2.6-0.7c0.7-0.5,1.3-1.1,1.7-1.9c0.4-0.8,0.6-1.7,0.6-2.7c0-1-0.2-1.9-0.6-2.7c-0.4-0.8-1-1.5-1.8-2
	c-0.7-0.5-1.6-0.7-2.5-0.7c-1,0-1.8,0.2-2.6,0.7c-0.8,0.5-1.4,1.1-1.9,1.9c-0.5,0.8-0.7,1.7-0.7,2.7c0,1,0.2,1.9,0.7,2.7
	s1.1,1.5,1.9,1.9C112.6,35,113.5,35.3,114.4,35.3z"/>
</svg>
