<svg width="430" height="45" viewBox="0 0 430 45" fill="none" xmlns="http://www.w3.org/2000/svg">
<g clip-path="url(#clip0_629_91)">
<mask id="path-1-inside-1_629_91" fill="white">
<path fill-rule="evenodd" clip-rule="evenodd" d="M-48.9949 18.5715V146H939.01C716.449 51.983 471.798 0 215.005 0C125.385 0 37.2444 6.33146 -48.9949 18.5715Z"/>
</mask>
<path fill-rule="evenodd" clip-rule="evenodd" d="M-48.9949 18.5715V146H939.01C716.449 51.983 471.798 0 215.005 0C125.385 0 37.2444 6.33146 -48.9949 18.5715Z" fill="#080818"/>
<path d="M-48.9949 146H-49.9949V147H-48.9949V146ZM-48.9949 18.5715L-49.1354 17.5814L-49.9949 17.7034V18.5715H-48.9949ZM939.01 146V147L939.399 145.079L939.01 146ZM-47.9949 146V18.5715H-49.9949V146H-47.9949ZM939.01 145H-48.9949V147H939.01V145ZM939.399 145.079C716.717 51.0107 471.934 -1 215.005 -1V1C471.662 1 716.181 52.9552 938.621 146.921L939.399 145.079ZM215.005 -1C125.338 -1 37.1503 5.33479 -49.1354 17.5814L-48.8544 19.5615C37.3385 7.32812 125.433 1 215.005 1V-1Z" fill="#3B32A4" mask="url(#path-1-inside-1_629_91)"/>
</g>
<defs>
<clipPath id="clip0_629_91">
<rect width="450" height="45" fill="white" transform="translate(-10)"/>
</clipPath>
</defs>
</svg>
